PathFileType	4	(X/Y/Z)	/Users/itak/Documents/Research/Walk-IL/dataset/trc/00403_00012.trc
DataRate	CameraRate	NumFrames	NumMarkers	Units	OrigDataRate	OrigDataStartFrame	OrigNumFrames
100.000000	100.000000	4	53	mm	100.000000	212	566
Frame#	Time	RPSI			LPSI			L3			STRN			T10			C7			CLAV			RBAK			LBAK			LSHO			LUPA			LAEL			LAOL			LWTS			LWPS			LFRA			LHPS			LHTS			RSHO			RUPA			RAEL			RAOL			RWTS			RWPS			RFRA			RIFD			RHTS			RHPS			RBHD			LFHD			RFHD			LBHD			LHIP			RHIP			RASI			LASI			LKNE			LTHI			LANK			LTIP			LTOE			LMT1			LMT5			LHEE			RKNE			RTHI			RANK			RTIP			RTOE			RMT1			RMT5			RHEE			LIFD			
		X1	Y1	Z1	X2	Y2	Z2	X3	Y3	Z3	X4	Y4	Z4	X5	Y5	Z5	X6	Y6	Z6	X7	Y7	Z7	X8	Y8	Z8	X9	Y9	Z9	X10	Y10	Z10	X11	Y11	Z11	X12	Y12	Z12	X13	Y13	Z13	X14	Y14	Z14	X15	Y15	Z15	X16	Y16	Z16	X17	Y17	Z17	X18	Y18	Z18	X19	Y19	Z19	X20	Y20	Z20	X21	Y21	Z21	X22	Y22	Z22	X23	Y23	Z23	X24	Y24	Z24	X25	Y25	Z25	X26	Y26	Z26	X27	Y27	Z27	X28	Y28	Z28	X29	Y29	Z29	X30	Y30	Z30	X31	Y31	Z31	X32	Y32	Z32	X33	Y33	Z33	X34	Y34	Z34	X35	Y35	Z35	X36	Y36	Z36	X37	Y37	Z37	X38	Y38	Z38	X39	Y39	Z39	X40	Y40	Z40	X41	Y41	Z41	X42	Y42	Z42	X43	Y43	Z43	X44	Y44	Z44	X45	Y45	Z45	X46	Y46	Z46	X47	Y47	Z47	X48	Y48	Z48	X49	Y49	Z49	X50	Y50	Z50	X51	Y51	Z51	X52	Y52	Z52	X53	Y53	Z53	

213	2.12	-673.4325561523438	944.507568359375	262.1994934082031	-807.2255859375	947.8292236328125	269.8860778808594	-735.416748046875	1022.403076171875	267.4939575195312	-707.931396484375	1186.340209960938	35.15522384643555	-737.57861328125	1125.62646484375	278.9250793457031	-726.2877197265625	1374.99853515625	252.9665374755859	-701.9703979492188	1303.3525390625	94.35999298095703	-683.5324096679688	1223.59130859375	297.0842895507812	-830.893798828125	1348.949096679688	251.4684753417969	-865.7875366210938	1374.121337890625	159.5056457519531	-945.9382934570312	1262.7607421875	165.5283508300781	-987.1862182617188	1076.258056640625	112.6729965209961	-935.6405029296875	1037.060546875	169.4583740234375	-949.679443359375	936.07080078125	-61.40121078491211	-1017.803283691406	903.847412109375	-28.0285701751709	-1001.790222167969	994.8843383789062	57.65140533447266	-1010.657287597656	837.6678466796875	-85.96492004394531	-973.4033813476562	865.9454956054688	-129.0755920410156	-565.685791015625	1343.390625	223.3211212158203	-523.0514526367188	1275.42041015625	251.4058227539062	-529.2774047851562	1017.193115234375	287.6629638671875	-618.649169921875	1017.93798828125	257.7198791503906	-507.4294128417969	782.4907836914062	196.1894378662109	-485.8624267578125	783.09716796875	267.3770751953125	-510.3546142578125	949.4734497070312	284.6490783691406	-534.06689453125	614.159912109375	244.9820709228516	-501.4102478027344	674.5109252929688	219.5873565673828	-498.0956115722656	697.760009765625	285.150146484375	-636.123046875	1551.84228515625	252.6795196533203	-705.9527587890625	1579.7587890625	67.71343231201172	-599.6515502929688	1567.990356445312	124.1239318847656	-783.7410888671875	1565.18017578125	194.4241027832031	-922.6361083984375	947.7933349609375	186.1399230957031	-565.8048095703125	918.155517578125	174.6209411621094	-625.5884399414062	936.4581298828125	46.19367599487305	-887.9133911132812	943.633056640625	67.36383056640625	-968.7030029296875	458.6366271972656	143.0477905273438	-956.0263671875	595.9654541015625	142.1923370361328	-979.3264770507812	197.3827819824219	514.3582763671875	-987.8409423828125	314.3796691894531	329.7431640625	-901.8820190429688	33.66330337524414	408.6312561035156	-878.1250610351562	94.76750183105469	444.8342895507812	-980.2674560546875	78.74510192871094	465.3621520996094	-925.8399047851562	233.8005981445312	527.7359008789062	-678.4849853515625	456.5131530761719	-0.3893899321556091	-599.8423461914062	703.923583984375	49.33635711669922	-787.6251220703125	51.12410354614258	2.634274959564209	-712.5311279296875	335.9757385253906	-29.85482597351074	-813.5160522460938	41.55146789550781	-185.5651550292969	-860.0701904296875	46.38773727416992	-118.0744171142578	-766.6192016601562	47.24162292480469	-78.43283081054688	-853.241943359375	40.09464263916016	62.96902465820312	-963.14599609375	786.2836303710938	-160.2980041503906	
214	2.13	-672.4151611328125	945.9679565429688	252.758544921875	-806.3470458984375	948.3671264648438	259.2390747070312	-734.1376953125	1024.37890625	257.506103515625	-705.3512573242188	1187.813842773438	24.80730819702148	-736.6244506835938	1127.068481445312	268.0694580078125	-725.2528686523438	1376.642700195312	242.5642547607422	-699.91748046875	1304.8623046875	84.02406311035156	-682.092529296875	1225.1748046875	286.899658203125	-829.7402954101562	1350.267944335938	240.3918304443359	-864.1703491210938	1375.376708984375	148.2155609130859	-944.2283325195312	1263.98388671875	153.5660705566406	-985.4244995117188	1076.9912109375	100.4700927734375	-934.0073852539062	1038.4384765625	157.8803253173828	-947.9888305664062	929.8803100585938	-68.94384765625	-1015.952575683594	899.0767822265625	-33.99330902099609	-999.9671630859375	993.4727783203125	47.60348892211914	-1008.9638671875	830.4896850585938	-89.06103515625	-971.8643188476562	856.8912353515625	-133.4895629882812	-564.3340454101562	1345.334228515625	213.5565338134766	-521.353271484375	1277.214599609375	241.4805450439453	-525.3932495117188	1018.21142578125	274.9039306640625	-615.2485961914062	1019.037658691406	246.6617584228516	-504.0093688964844	785.7340698242188	179.0530395507812	-480.934326171875	784.528564453125	249.6744384765625	-506.1819458007812	950.7089233398438	270.5986938476562	-529.7302856445312	616.218505859375	223.3017578125	-497.4872741699219	677.2938232421875	199.1886291503906	-492.9869079589844	698.56396484375	265.31396484375	-634.9014282226562	1553.00927734375	243.4238586425781	-702.9691162109375	1581.650146484375	57.80824279785156	-597.19775390625	1569.375244140625	115.2493743896484	-781.95166015625	1566.980834960938	183.7301788330078	-920.9024658203125	948.4089965820312	174.2648773193359	-563.8892822265625	919.8084106445312	165.9268035888672	-622.54345703125	937.6539916992188	36.94024658203125	-885.009521484375	945.345703125	55.746826171875	-967.78857421875	459.7696533203125	117.3105316162109	-954.7122802734375	596.8353881835938	120.5871734619141	-986.5986938476562	204.1239318847656	491.3265380859375	-991.0908203125	317.2502746582031	304.2704467773438	-907.532958984375	34.99401092529297	389.6614074707031	-884.173095703125	99.00981903076172	425.5561218261719	-986.9315185546875	84.25681304931641	444.0062561035156	-933.3416137695312	240.3142395019531	505.5208740234375	-677.2040405273438	456.1221008300781	-3.935319900512695	-597.8630981445312	704.2706298828125	42.16473388671875	-787.6300048828125	51.0141487121582	2.669276237487793	-711.5922241210938	335.374267578125	-32.08679962158203	-813.5956420898438	41.62267303466797	-185.4989166259766	-860.0792236328125	46.47330474853516	-118.026481628418	-766.5465087890625	47.20961761474609	-78.43490600585938	-853.1695556640625	40.09780120849609	63.04705810546875	-961.5938720703125	775.8707275390625	-161.1410827636719	
215	2.14	-671.4808959960938	947.44091796875	243.6703186035156	-805.4677124023438	948.917236328125	248.7793121337891	-732.872802734375	1026.200561523438	247.6483154296875	-702.706298828125	1189.14453125	14.59596061706543	-735.6400756835938	1128.505981445312	257.49658203125	-724.2705688476562	1378.289184570312	232.2047576904297	-697.8285522460938	1306.23876953125	73.77648162841797	-680.6536865234375	1226.731811523438	276.8593444824219	-828.62109375	1351.536743164062	229.3152770996094	-862.5563354492188	1376.529296875	136.8963012695312	-942.4791259765625	1265.04296875	141.5933837890625	-983.5991821289062	1077.574096679688	88.33403015136719	-932.2908935546875	1039.637817382812	146.3485412597656	-946.3773193359375	923.5946655273438	-76.00066375732422	-1014.11083984375	894.2963256835938	-39.42406845092773	-998.0863037109375	991.9321899414062	37.80900192260742	-1007.433654785156	823.4763793945312	-91.52922821044922	-970.57568359375	847.9420166015625	-137.2619476318359	-563.0047607421875	1347.213500976562	203.9337005615234	-519.6610717773438	1278.947265625	231.7611846923828	-521.2464599609375	1019.215881347656	262.3773193359375	-611.5549926757812	1019.947998046875	235.799560546875	-500.2470397949219	789.18505859375	161.970947265625	-475.5641784667969	786.1103515625	231.9185028076172	-501.6838684082031	951.94482421875	256.651611328125	-524.63525390625	618.5116577148438	201.2863311767578	-492.9676818847656	680.4035034179688	178.5923919677734	-487.255859375	699.5443725585938	245.2434844970703	-633.6781616210938	1554.18408203125	234.1669158935547	-699.9679565429688	1583.440063476562	47.89364242553711	-594.7374877929688	1570.70849609375	106.3840484619141	-780.1485595703125	1568.729858398438	173.0123748779297	-919.1497192382812	949.0350341796875	162.5484008789062	-561.9436645507812	921.4124755859375	157.5956726074219	-619.4671020507812	938.7255859375	28.05709648132324	-882.0720825195312	946.978759765625	44.37144470214844	-966.1067504882812	461.2084655761719	91.44995880126953	-952.9009399414062	597.9755859375	98.94933319091797	-993.0609130859375	209.6151580810547	467.2905883789062	-993.6022338867188	319.9625549316406	278.2614135742188	-913.9110717773438	36.78887557983398	367.3468322753906	-890.33642578125	102.6833572387695	403.6817932128906	-993.67578125	89.57181549072266	420.1497497558594	-939.8762817382812	245.2373809814453	482.5667419433594	-675.8156127929688	455.6472778320312	-6.868123054504395	-595.77294921875	704.5238647460938	35.56061553955078	-787.5891723632812	50.87828063964844	2.737160921096802	-710.547119140625	334.754150390625	-33.82739639282227	-813.6531372070312	41.73028182983398	-185.4021453857422	-860.04443359375	46.56689071655273	-117.9610748291016	-766.4293212890625	47.15365600585938	-78.41046142578125	-853.1034545898438	40.10962295532227	63.13731002807617	-960.424072265625	765.7249755859375	-161.3538208007812	
216	2.15	-670.6690063476562	948.9384765625	234.9028778076172	-804.6423950195312	949.531982421875	238.4674835205078	-731.6620483398438	1027.880249023438	237.8910827636719	-699.966796875	1190.37890625	4.519830703735352	-734.6483764648438	1129.951049804688	247.2103424072266	-723.342041015625	1379.940795898438	221.8910369873047	-695.6874389648438	1307.522094726562	63.63004302978516	-679.2575073242188	1228.274536132812	266.9657897949219	-827.5361938476562	1352.7822265625	218.2230529785156	-860.928466796875	1377.61474609375	125.5308532714844	-940.6843872070312	1265.986938476562	129.6049499511719	-981.6865234375	1078.060180664062	76.33012390136719	-930.45751953125	1040.71142578125	134.9072113037109	-944.8116455078125	917.300048828125	-82.54265594482422	-1012.263854980469	889.6025390625	-44.32577133178711	-996.1303100585938	990.3325805664062	28.30853652954102	-1006.039855957031	816.7317504882812	-93.38243103027344	-969.4950561523438	839.1954345703125	-140.3844757080078	-561.7083129882812	1349.03662109375	194.4906768798828	-517.9982299804688	1280.633422851562	222.2884979248047	-516.9094848632812	1020.238708496094	250.1468658447266	-607.6170654296875	1020.723205566406	225.1149291992188	-496.1505432128906	792.8795776367188	144.9929504394531	-469.8031616210938	787.9033813476562	214.1715240478516	-496.9296569824219	953.2135620117188	242.8764801025391	-518.7752075195312	621.1041870117188	178.9977264404297	-487.8489074707031	683.8980712890625	157.8730163574219	-480.9459228515625	700.7774047851562	224.9996337890625	-632.4574584960938	1555.381591796875	224.9061584472656	-696.9456787109375	1585.13037109375	37.97011947631836	-592.270751953125	1572.000366210938	97.52675628662109	-778.3279418945312	1570.433959960938	162.2705535888672	-917.3832397460938	949.7259521484375	150.9019622802734	-559.9962768554688	922.9649047851562	149.6733093261719	-616.31103515625	939.71630859375	19.56539535522461	-879.0450439453125	948.5557861328125	33.17328262329102	-963.6477661132812	463.0093383789062	65.59745025634766	-950.583984375	599.427978515625	77.34362030029297	-998.6554565429688	213.7935485839844	442.3031311035156	-995.324462890625	322.5157775878906	251.8398132324219	-920.7537841796875	38.9374885559082	341.87255859375	-896.4365844726562	105.6324996948242	379.3622131347656	-1000.315673828125	94.52568817138672	393.925537109375	-945.4169311523438	248.5188446044922	458.9112854003906	-674.339599609375	455.1177062988281	-9.262410163879395	-593.568359375	704.7064208984375	29.50824928283691	-787.5052490234375	50.72819900512695	2.827193260192871	-709.4249877929688	334.1343383789062	-35.14419555664062	-813.701416015625	41.84692764282227	-185.2867584228516	-859.9734497070312	46.65801239013672	-117.8798217773438	-766.2766723632812	47.07981491088867	-78.36691284179688	-853.0403442382812	40.13631820678711	63.23758316040039	-959.6103515625	755.9490356445312	-160.9427795410156	
